<svg width="134" height="76" viewBox="0 0 134 76" fill="none" xmlns="http://www.w3.org/2000/svg">
<path d="M67.126 41.8047L75.61 30.8254C73.2533 29.1099 70.3075 28.0806 67.126 28.0806C63.9445 28.0806 60.9986 29.1099 58.642 30.8254L67.126 41.8047ZM67.126 0.632568C57.5815 0.632568 48.7675 3.6976 41.674 8.86699L45.916 14.3566C51.8076 10.0564 59.1604 7.49459 67.126 7.49459C75.0915 7.49459 82.4443 10.0564 88.336 14.3566L92.578 8.86699C85.4844 3.6976 76.6705 0.632568 67.126 0.632568ZM67.126 14.3566C60.763 14.3566 54.8949 16.3923 50.158 19.8462L54.4 25.3358C57.935 22.7511 62.3419 21.2186 67.126 21.2186C71.91 21.2186 76.317 22.7511 79.852 25.3358L84.094 19.8462C79.3571 16.3923 73.489 14.3566 67.126 14.3566Z" fill="#E8E8E8"/>
<path d="M0.559204 7.8574C0.559204 7.8574 25.7067 1.41609 43.4578 14.2987C43.4578 14.2987 46.4163 38.4536 58.2504 38.4536V27.1813C58.2504 27.1813 61.209 33.6226 67.126 33.6226C73.0431 33.6226 76.0016 27.1813 76.0016 27.1813V38.4536C87.8357 38.4536 90.7942 14.2987 90.7942 14.2987C108.545 1.41609 133.693 7.8574 133.693 7.8574C121.859 14.2987 120.379 36.8433 120.379 36.8433C96.7113 36.8433 96.7113 57.7775 96.7113 57.7775C67.126 51.3362 67.126 75.4911 67.126 75.4911C67.126 75.4911 67.126 51.3362 37.5408 57.7775C37.5408 57.7775 37.5408 36.8433 13.8726 36.8433C13.8726 36.8433 12.3933 14.2987 0.559204 7.8574Z" fill="#E8E8E8"/>
</svg>
