<svg width="78" height="60" viewBox="0 0 78 60" fill="none" xmlns="http://www.w3.org/2000/svg">
<path d="M39.6511 31.891L41.8384 24.9332C40.4018 24.4584 38.8001 24.4282 37.2636 24.9572C35.7272 25.4863 34.4836 26.4962 33.6439 27.7548L39.6511 31.891ZM32.4886 11.0896C27.8792 12.6768 24.1559 15.691 21.6294 19.4823L24.633 21.5504C26.7303 18.3981 29.8355 15.8811 33.6824 14.5565C37.5293 13.232 41.5259 13.3036 45.1193 14.4965L46.2129 11.0175C41.8878 9.58538 37.098 9.50249 32.4886 11.0896ZM34.8761 18.0234C31.8032 19.0815 29.3234 21.0858 27.6366 23.6185L30.6403 25.6867C31.8978 23.793 33.7595 22.2859 36.0699 21.4903C38.3803 20.6948 40.7752 20.7363 42.932 21.4543L44.0256 17.9754C41.1372 17.0181 37.9491 16.9653 34.8761 18.0234Z" fill="black"/>
<path d="M1.59789 25.8092C1.59789 25.8092 12.622 18.3731 23.4358 21.93C23.4358 21.93 29.0667 33.6418 34.7818 31.6739L32.8208 25.9788C32.8208 25.9788 35.3702 28.7412 38.2278 27.7572C41.0853 26.7733 41.3936 23.027 41.3936 23.027L43.3545 28.7221C49.0697 26.7542 46.2963 14.0585 46.2963 14.0585C52.6279 4.59796 65.8932 3.67056 65.8932 3.67056C61.2986 8.89278 64.5061 20.529 64.5061 20.529C53.0759 24.4647 56.7177 35.0413 56.7177 35.0413C41.3093 36.7067 45.5114 48.9105 45.5114 48.9105C45.5114 48.9105 41.3093 36.7067 28.142 44.8807C28.142 44.8807 24.5002 34.3041 13.0699 38.2399C13.0699 38.2399 8.43358 27.0957 1.59789 25.8092Z" fill="black"/>
</svg>
