<svg width="103" height="59" viewBox="0 0 103 59" fill="none" xmlns="http://www.w3.org/2000/svg">
<path d="M51.7796 32.3128L58.3077 23.8647C56.4943 22.5447 54.2276 21.7527 51.7796 21.7527C49.3316 21.7527 47.0649 22.5447 45.2515 23.8647L51.7796 32.3128ZM51.7796 0.632568C44.4355 0.632568 37.6535 2.99098 32.1953 6.96861L35.4594 11.1926C39.9928 7.88382 45.6504 5.91261 51.7796 5.91261C57.9087 5.91261 63.5664 7.88382 68.0998 11.1926L71.3639 6.96861C65.9056 2.99098 59.1237 0.632568 51.7796 0.632568ZM51.7796 11.1926C46.8835 11.1926 42.3683 12.7591 38.7234 15.4167L41.9874 19.6407C44.7075 17.6519 48.0985 16.4727 51.7796 16.4727C55.4607 16.4727 58.8517 17.6519 61.5717 19.6407L64.8358 15.4167C61.1909 12.7591 56.6757 11.1926 51.7796 11.1926Z" fill="#E8E8E8"/>
<path d="M0.559204 6.19172C0.559204 6.19172 19.9091 1.2354 33.5679 11.148C33.5679 11.148 35.8444 29.7342 44.9502 29.7342V21.0607C44.9502 21.0607 47.2267 26.017 51.7796 26.017C56.3325 26.017 58.609 21.0607 58.609 21.0607V29.7342C67.7148 29.7342 69.9913 11.148 69.9913 11.148C83.6501 1.2354 103 6.19172 103 6.19172C93.8941 11.148 92.7559 28.4951 92.7559 28.4951C74.5442 28.4951 74.5442 44.6031 74.5442 44.6031C51.7796 39.6468 51.7796 58.233 51.7796 58.233C51.7796 58.233 51.7796 39.6468 29.015 44.6031C29.015 44.6031 29.015 28.4951 10.8033 28.4951C10.8033 28.4951 9.66505 11.148 0.559204 6.19172Z" fill="#E8E8E8"/>
</svg>
